<?xml version="1.0" encoding="UTF-8" standalone="no"?>
<!DOCTYPE svg PUBLIC "-//W3C//DTD SVG 1.1//EN" "http://www.w3.org/Graphics/SVG/1.1/DTD/svg11.dtd">
<!-- Created with Vectornator (http://vectornator.io/) -->
<svg height="100%" stroke-miterlimit="10" style="fill-rule:nonzero;clip-rule:evenodd;stroke-linecap:round;stroke-linejoin:round;" version="1.1" viewBox="0 0 1000 1000" width="100%" xml:space="preserve" xmlns="http://www.w3.org/2000/svg" xmlns:xlink="http://www.w3.org/1999/xlink">
<defs>
<clipPath id="TextBounds">
<rect height="423" width="991.02" x="4.49" y="145.62"/>
</clipPath>
<clipPath id="TextBounds_2">
<rect height="251" width="753.225" x="123.387" y="603.38"/>
</clipPath>
</defs>
<g id="Antojitos-del-Parque-editable" visibility="hidden">
<g opacity="1">
<g fill="#000000" opacity="1" stroke="none">
<path clip-path="url(#TextBounds)" d="M156.47 428.14C161.03 428.14 167.11 422.883 174.71 412.37C182.31 401.857 189.847 388.303 197.32 371.71C204.793 355.117 209.353 346.82 211 346.82C212.647 346.82 213.47 347.833 213.47 349.86C213.47 356.953 209.797 368.227 202.45 383.68C182.437 426.24 165.463 447.52 151.53 447.52C139.877 447.52 131.517 445.493 126.45 441.44C124.17 439.16 123.03 415.093 123.03 369.24L60.71 373.8C55.8967 386.973 51.59 400.147 47.79 413.32C43.99 426.493 41.4567 434.6 40.19 437.64C37.4033 444.227 30.69 447.52 20.05 447.52C12.9567 447.52 9.41 444.48 9.41 438.4C9.41 432.32 14.2233 423.453 23.85 411.8C25.6233 409.52 31.45 397.233 41.33 374.94C37.7833 375.193 34.3633 375.32 31.07 375.32C22.2033 375.32 17.77 371.52 17.77 363.92C17.77 357.08 21.3167 353.66 28.41 353.66C28.9167 353.66 36.1367 354.293 50.07 355.56C53.87 346.693 57.9233 337.953 62.23 329.34C95.4167 259.927 118.217 225.22 130.63 225.22C140.003 225.22 146.463 268.667 150.01 355.56L153.43 355.56C155.203 355.56 156.09 356.827 156.09 359.36C156.09 361.893 154.19 364.047 150.39 365.82C151.91 407.367 153.937 428.14 156.47 428.14ZM66.41 357.46C96.05 357.46 114.923 357.333 123.03 357.08C122.777 353.027 122.523 345.933 122.27 335.8C122.017 325.667 121.763 316.863 121.51 309.39C121.257 301.917 121.003 294.127 120.75 286.02C119.737 268.54 118.217 259.8 116.19 259.8C113.403 259.8 107.703 268.033 99.09 284.5C90.4767 300.967 83.7633 314.9 78.95 326.3C72.3633 342.767 68.1833 353.153 66.41 357.46Z"/>
<path clip-path="url(#TextBounds)" d="M226.01 425.1L226.39 436.88C226.39 443.973 224.363 447.52 220.31 447.52C214.23 447.52 208.403 446.697 202.83 445.05C197.257 443.403 194.47 441.123 194.47 438.21C194.47 435.297 195.167 425.29 196.56 408.19C197.953 391.09 198.65 378.233 198.65 369.62L198.65 347.2C198.65 335.04 199.917 327.693 202.45 325.16C204.983 322.627 209.48 318.953 215.94 314.14C222.4 309.327 227.087 306.92 230 306.92C232.913 306.92 234.75 307.427 235.51 308.44C236.27 309.453 236.65 311.353 236.65 314.14C236.65 327.567 234.117 340.233 229.05 352.14C227.783 366.58 227.15 376.587 227.15 382.16C228.163 380.64 233.483 372.027 243.11 356.32C252.737 340.613 260.907 329.087 267.62 321.74C274.333 314.393 280.35 310.72 285.67 310.72C290.99 310.72 295.74 312.493 299.92 316.04C304.1 319.587 306.19 324.02 306.19 329.34C306.19 340.487 304.987 356.89 302.58 378.55C300.173 400.21 298.97 413.89 298.97 419.59C298.97 425.29 299.73 428.14 301.25 428.14C305.557 427.887 311.51 422.503 319.11 411.99C326.71 401.477 334.247 387.987 341.72 371.52C349.193 355.053 353.753 346.82 355.4 346.82C357.047 346.82 357.87 347.833 357.87 349.86C357.87 356.953 354.197 368.227 346.85 383.68C326.837 426.24 309.99 447.52 296.31 447.52C286.43 447.52 278.957 445.493 273.89 441.44C272.117 439.667 271.23 435.043 271.23 427.57C271.23 420.097 271.927 407.937 273.32 391.09C274.713 374.243 275.41 361.64 275.41 353.28C275.41 344.92 273.953 340.74 271.04 340.74C268.127 340.74 260.463 349.417 248.05 366.77C235.637 384.123 229.05 395.207 228.29 400.02C226.77 408.887 226.01 417.247 226.01 425.1Z"/>
<path clip-path="url(#TextBounds)" d="M422.47 383.68C402.457 426.24 385.547 447.52 371.74 447.52C357.933 447.52 349.827 445.873 347.42 442.58C345.013 439.287 343.81 428.393 343.81 409.9C343.81 391.407 345.583 364.68 349.13 329.72C336.463 327.187 329.75 321.993 328.99 314.14C328.99 310.087 331.65 308.06 336.97 308.06C342.29 308.06 346.977 309.073 351.03 311.1C353.31 292.86 355.97 274.367 359.01 255.62C359.77 250.807 362.177 246.247 366.23 241.94C370.283 237.633 374.21 235.48 378.01 235.48C381.303 235.48 382.95 240.673 382.95 251.06C382.95 255.873 381.177 278.04 377.63 317.56C384.47 316.293 392.007 313.76 400.24 309.96C408.473 306.16 413.35 304.26 414.87 304.26C419.43 304.26 421.71 305.653 421.71 308.44C421.963 310.973 417.277 314.457 407.65 318.89C398.023 323.323 387.637 326.68 376.49 328.96C373.45 365.947 371.93 393.94 371.93 412.94C371.93 423.073 373.45 428.14 376.49 428.14C381.05 427.887 387.13 422.567 394.73 412.18C402.33 401.793 409.867 388.303 417.34 371.71C424.813 355.117 429.373 346.82 431.02 346.82C432.667 346.82 433.49 347.833 433.49 349.86C433.49 356.953 429.817 368.227 422.47 383.68Z"/>
<path clip-path="url(#TextBounds)" d="M532.67 363.16C542.803 359.867 549.833 357.017 553.76 354.61C557.687 352.203 560.663 350.367 562.69 349.1L567.25 346.44C568.517 345.68 569.53 345.3 570.29 345.3C572.317 345.3 573.33 346.44 573.33 348.72C573.33 351 569.403 354.99 561.55 360.69C553.697 366.39 543.943 371.52 532.29 376.08C530.517 397.36 523.803 414.587 512.15 427.76C500.497 440.933 483.903 447.52 462.37 447.52C446.663 447.52 434.63 441.25 426.27 428.71C417.91 416.17 413.73 401.477 413.73 384.63C413.73 367.783 418.733 351.887 428.74 336.94C438.747 321.993 451.603 314.52 467.31 314.52C474.403 309.453 482.827 306.92 492.58 306.92C502.333 306.92 511.39 312.113 519.75 322.5C528.11 332.887 532.417 346.44 532.67 363.16ZM507.97 382.54L494.29 383.3C482.637 383.3 472.757 379.817 464.65 372.85C456.543 365.883 452.49 358.22 452.49 349.86C452.49 341.5 453.883 334.28 456.67 328.2C445.777 336.813 440.33 353.787 440.33 379.12C440.33 391.28 442.863 402.87 447.93 413.89C452.997 424.91 460.977 430.42 471.87 430.42C482.763 430.42 491.25 425.797 497.33 416.55C503.41 407.303 506.957 395.967 507.97 382.54ZM484.41 319.46C480.357 319.46 477.19 321.297 474.91 324.97C472.63 328.643 471.49 332.633 471.49 336.94C471.49 346.313 474.72 353.913 481.18 359.74C487.64 365.567 495.177 368.48 503.79 368.48L508.35 368.48C507.843 356.067 505.753 344.793 502.08 334.66C498.407 324.527 492.517 319.46 484.41 319.46Z"/>
<path clip-path="url(#TextBounds)" d="M558.13 431.18C561.423 364.807 563.26 330.353 563.64 327.82C564.02 325.287 567.63 321.17 574.47 315.47C581.31 309.77 586.567 306.92 590.24 306.92C593.913 306.92 595.75 312.367 595.75 323.26C595.75 334.153 593.47 343.78 588.91 352.14C586.63 371.393 585.237 387.1 584.73 399.26C609.557 367.847 622.793 351.253 624.44 349.48C626.087 347.707 627.543 346.82 628.81 346.82C631.343 346.82 632.61 348.087 632.61 350.62C632.61 352.14 632.103 353.787 631.09 355.56C622.983 367.467 607.023 388.367 583.21 418.26C581.69 448.407 580.677 468.927 580.17 479.82C578.903 511.993 574.407 534.603 566.68 547.65C558.953 560.697 545.21 567.22 525.45 567.22C516.837 567.22 508.793 564.623 501.32 559.43C493.847 554.237 490.11 546.13 490.11 535.11C490.11 524.09 492.707 513.513 497.9 503.38C503.093 493.247 508.54 484.887 514.24 478.3C519.94 471.713 527.793 463.227 537.8 452.84C547.807 442.453 554.583 435.233 558.13 431.18ZM556.99 449.04C528.11 480.2 513.67 505.153 513.67 523.9C513.67 532.513 515.19 539.607 518.23 545.18C521.27 550.753 525.45 553.54 530.77 553.54C538.877 553.54 544.577 549.107 547.87 540.24C551.163 531.373 553.57 513.387 555.09 486.28L556.99 449.04ZM569.91 259.8C569.91 255.24 572.317 251.313 577.13 248.02C581.943 244.727 586.25 243.08 590.05 243.08C596.89 243.08 600.31 247.007 600.31 254.86C600.31 262.713 598.283 269.49 594.23 275.19C590.177 280.89 584.477 283.74 577.13 283.74C572.317 283.74 569.91 275.76 569.91 259.8Z"/>
<path clip-path="url(#TextBounds)" d="M629.95 259.8C629.95 255.24 632.357 251.313 637.17 248.02C641.983 244.727 646.29 243.08 650.09 243.08C656.93 243.08 660.35 247.007 660.35 254.86C660.35 262.713 658.323 269.49 654.27 275.19C650.217 280.89 644.517 283.74 637.17 283.74C632.357 283.74 629.95 275.76 629.95 259.8ZM640.97 447.52C631.09 447.52 623.617 445.493 618.55 441.44C616.777 439.667 615.89 433.333 615.89 422.44C615.89 411.547 616.713 393.37 618.36 367.91C620.007 342.45 621.463 328.707 622.73 326.68C623.997 324.653 627.923 320.853 634.51 315.28C641.097 309.707 646.227 306.92 649.9 306.92C653.573 306.92 655.41 311.733 655.41 321.36C655.41 323.893 654.713 328.833 653.32 336.18C651.927 343.527 650.343 348.847 648.57 352.14C645.277 360.5 643.63 382.413 643.63 417.88C643.63 424.72 644.39 428.14 645.91 428.14C650.217 427.887 656.17 422.503 663.77 411.99C671.37 401.477 678.907 387.987 686.38 371.52C693.853 355.053 698.413 346.82 700.06 346.82C701.707 346.82 702.53 347.833 702.53 349.86C702.53 356.953 698.857 368.227 691.51 383.68C671.497 426.24 654.65 447.52 640.97 447.52Z"/>
<path clip-path="url(#TextBounds)" d="M767.51 383.68C747.497 426.24 730.587 447.52 716.78 447.52C702.973 447.52 694.867 445.873 692.46 442.58C690.053 439.287 688.85 428.393 688.85 409.9C688.85 391.407 690.623 364.68 694.17 329.72C681.503 327.187 674.79 321.993 674.03 314.14C674.03 310.087 676.69 308.06 682.01 308.06C687.33 308.06 692.017 309.073 696.07 311.1C698.35 292.86 701.01 274.367 704.05 255.62C704.81 250.807 707.217 246.247 711.27 241.94C715.323 237.633 719.25 235.48 723.05 235.48C726.343 235.48 727.99 240.673 727.99 251.06C727.99 255.873 726.217 278.04 722.67 317.56C729.51 316.293 737.047 313.76 745.28 309.96C753.513 306.16 758.39 304.26 759.91 304.26C764.47 304.26 766.75 305.653 766.75 308.44C767.003 310.973 762.317 314.457 752.69 318.89C743.063 323.323 732.677 326.68 721.53 328.96C718.49 365.947 716.97 393.94 716.97 412.94C716.97 423.073 718.49 428.14 721.53 428.14C726.09 427.887 732.17 422.567 739.77 412.18C747.37 401.793 754.907 388.303 762.38 371.71C769.853 355.117 774.413 346.82 776.06 346.82C777.707 346.82 778.53 347.833 778.53 349.86C778.53 356.953 774.857 368.227 767.51 383.68Z"/>
<path clip-path="url(#TextBounds)" d="M877.71 363.16C887.843 359.867 894.873 357.017 898.8 354.61C902.727 352.203 905.703 350.367 907.73 349.1L912.29 346.44C913.557 345.68 914.57 345.3 915.33 345.3C917.357 345.3 918.37 346.44 918.37 348.72C918.37 351 914.443 354.99 906.59 360.69C898.737 366.39 888.983 371.52 877.33 376.08C875.557 397.36 868.843 414.587 857.19 427.76C845.537 440.933 828.943 447.52 807.41 447.52C791.703 447.52 779.67 441.25 771.31 428.71C762.95 416.17 758.77 401.477 758.77 384.63C758.77 367.783 763.773 351.887 773.78 336.94C783.787 321.993 796.643 314.52 812.35 314.52C819.443 309.453 827.867 306.92 837.62 306.92C847.373 306.92 856.43 312.113 864.79 322.5C873.15 332.887 877.457 346.44 877.71 363.16ZM853.01 382.54L839.33 383.3C827.677 383.3 817.797 379.817 809.69 372.85C801.583 365.883 797.53 358.22 797.53 349.86C797.53 341.5 798.923 334.28 801.71 328.2C790.817 336.813 785.37 353.787 785.37 379.12C785.37 391.28 787.903 402.87 792.97 413.89C798.037 424.91 806.017 430.42 816.91 430.42C827.803 430.42 836.29 425.797 842.37 416.55C848.45 407.303 851.997 395.967 853.01 382.54ZM829.45 319.46C825.397 319.46 822.23 321.297 819.95 324.97C817.67 328.643 816.53 332.633 816.53 336.94C816.53 346.313 819.76 353.913 826.22 359.74C832.68 365.567 840.217 368.48 848.83 368.48L853.39 368.48C852.883 356.067 850.793 344.793 847.12 334.66C843.447 324.527 837.557 319.46 829.45 319.46Z"/>
<path clip-path="url(#TextBounds)" d="M953.33 329.34L954.09 323.64C954.09 319.08 951.493 316.8 946.3 316.8C941.107 316.8 936.103 320.157 931.29 326.87C926.477 333.583 924.07 339.093 924.07 343.4C924.07 347.707 924.323 351.127 924.83 353.66C925.337 356.193 925.907 358.283 926.54 359.93C927.173 361.577 928.25 363.54 929.77 365.82C931.29 368.1 932.43 369.747 933.19 370.76L937.37 376.08C939.143 378.613 940.41 380.26 941.17 381.02C954.343 370.127 970.05 357.967 988.29 344.54C989.303 343.78 990.443 343.4 991.71 343.4C994.243 343.4 995.51 344.793 995.51 347.58C995.51 350.367 994.37 352.52 992.09 354.04C975.877 364.427 960.55 375.7 946.11 387.86C951.683 395.967 954.47 404.833 954.47 414.46C954.47 424.087 950.797 432.32 943.45 439.16C936.103 446 926.73 449.42 915.33 449.42C903.93 449.42 898.23 443.973 898.23 433.08C898.23 425.227 906.59 413.193 923.31 396.98C922.043 395.46 919.763 392.99 916.47 389.57C913.177 386.15 910.707 383.427 909.06 381.4C907.413 379.373 905.45 376.713 903.17 373.42C899.117 367.087 897.09 360.247 897.09 352.9C897.09 337.953 901.903 325.857 911.53 316.61C921.157 307.363 931.417 302.74 942.31 302.74C949.15 302.74 954.47 304.577 958.27 308.25C962.07 311.923 963.97 315.66 963.97 319.46C963.97 328.073 961.943 332.38 957.89 332.38C954.85 332.38 953.33 331.367 953.33 329.34ZM929.01 404.2C918.877 414.333 913.81 422.503 913.81 428.71C913.81 434.917 916.977 438.02 923.31 438.02C927.11 438.02 930.277 436.5 932.81 433.46C938.383 425.86 937.117 416.107 929.01 404.2Z"/>
</g>
<g fill="#000000" opacity="1" stroke="none">
<path clip-path="url(#TextBounds_2)" d="M189.012 782.505C183.912 782.505 179.938 781.38 177.087 779.13C175.887 777.93 175.287 774.78 175.287 769.68C175.287 764.58 175.512 757.905 175.962 749.655C171.912 760.455 167.788 768.63 163.587 774.18C159.387 779.73 154.1 782.505 147.725 782.505C141.35 782.505 135.95 779.73 131.525 774.18C127.1 768.63 124.887 759.78 124.887 747.63C124.887 735.48 128.3 724.755 135.125 715.455C141.95 706.155 150.912 701.505 162.012 701.505C167.413 701.505 173.037 703.605 178.887 707.805C181.288 678.555 183.462 662.055 185.412 658.305C186.313 656.655 188.45 654.255 191.825 651.105C195.2 647.955 198.012 646.38 200.262 646.38C202.513 646.38 203.637 649.905 203.637 656.955C203.637 665.205 202.888 672.33 201.387 678.33C197.337 693.78 194.788 703.605 193.738 707.805C191.637 724.005 190.587 743.055 190.587 764.955C190.587 769.005 191.037 771.03 191.938 771.03C194.638 770.88 198.237 767.73 202.738 761.58C207.238 755.43 211.7 747.442 216.125 737.617C220.55 727.792 223.25 722.88 224.225 722.88C225.2 722.88 225.688 723.48 225.688 724.68C225.688 728.88 223.513 735.555 219.162 744.705C207.312 769.905 197.263 782.505 189.012 782.505ZM160.662 709.605C156.612 709.605 152.563 712.83 148.512 719.28C144.462 725.73 142.438 733.192 142.438 741.667C142.438 750.142 143.525 757.08 145.7 762.48C147.875 767.88 150.612 770.58 153.912 770.58C160.663 770.58 168.387 757.08 177.087 730.08C177.838 721.83 178.212 716.955 178.212 715.455C173.862 711.555 168.013 709.605 160.662 709.605Z"/>
<path clip-path="url(#TextBounds_2)" d="M240.988 782.505C232.587 782.505 225.913 779.317 220.962 772.942C216.012 766.567 213.537 759.33 213.537 751.23C213.537 734.88 216.987 722.505 223.887 714.105C230.788 705.705 239.712 701.505 250.662 701.505C255.763 701.505 259.962 702.892 263.262 705.667C266.563 708.442 268.212 712.23 268.212 717.03C268.212 726.03 264.425 733.567 256.85 739.642C249.275 745.717 240.013 748.905 229.062 749.205C229.663 755.055 231.65 760.117 235.025 764.392C238.4 768.667 242.337 770.805 246.838 770.805C251.338 770.805 255.387 769.755 258.988 767.655C262.588 765.555 265.887 762.555 268.887 758.655C275.188 750.405 280.587 741.03 285.087 730.53C286.288 727.83 287.225 725.88 287.9 724.68C288.575 723.48 289.325 722.88 290.15 722.88C290.975 722.88 291.387 723.48 291.387 724.68C291.387 732.18 286.813 743.43 277.663 758.43C267.762 774.48 255.538 782.505 240.988 782.505ZM229.062 743.805C237.913 742.305 244.4 739.455 248.525 735.255C252.65 731.055 254.713 725.58 254.713 718.83C254.713 712.08 252.538 708.705 248.188 708.705C242.937 708.705 238.513 712.342 234.912 719.617C231.312 726.892 229.363 734.955 229.062 743.805Z"/>
<path clip-path="url(#TextBounds_2)" d="M295.887 782.505C292.587 782.505 289.55 782.092 286.775 781.267C284 780.442 282.313 779.655 281.712 778.905C280.212 777.105 279.462 767.767 279.462 750.892C279.462 734.017 281.337 711.105 285.087 682.155C288.238 658.305 295.587 646.38 307.137 646.38C309.838 646.38 311.787 647.842 312.987 650.767C314.188 653.692 314.787 656.505 314.787 659.205C314.787 678.705 308.863 700.53 297.012 724.68C296.562 737.13 296.337 747.967 296.337 757.192C296.337 766.417 297.162 771.03 298.812 771.03C301.363 770.88 304.887 767.692 309.387 761.467C313.888 755.242 318.35 747.255 322.775 737.505C327.2 727.755 329.9 722.88 330.875 722.88C331.85 722.88 332.337 723.48 332.337 724.68C332.337 728.88 330.163 735.555 325.812 744.705C313.962 769.905 303.988 782.505 295.887 782.505ZM309.162 661.23C309.162 656.43 308.563 654.03 307.362 654.03C302.862 654.03 299.563 672.705 297.462 710.055C305.263 689.505 309.162 673.23 309.162 661.23Z"/>
<path clip-path="url(#TextBounds_2)" d="M429.087 651.105C429.988 650.955 432.425 650.88 436.4 650.88C440.375 650.88 445.175 651.592 450.8 653.017C456.425 654.442 461.9 656.767 467.225 659.992C472.55 663.217 476.825 667.942 480.05 674.167C483.275 680.392 484.887 687.78 484.887 696.33C484.887 710.43 479.413 721.83 468.462 730.53C457.512 739.23 443.038 743.58 425.037 743.58C425.037 772.83 419.863 787.455 409.512 787.455C402.612 787.455 399.162 784.53 399.162 778.68C399.162 776.88 400.062 774.405 401.863 771.255C403.663 768.105 404.937 764.505 405.688 760.455C406.438 756.405 407.037 749.88 407.488 740.88C401.337 738.93 398.262 736.23 398.262 732.78C398.262 729.33 399.837 727.605 402.988 727.605C404.638 727.605 406.287 727.83 407.938 728.28C409.888 688.23 411.237 666.105 411.988 661.905C403.437 664.005 396.35 667.455 390.725 672.255C385.1 677.055 382.287 682.755 382.287 689.355C382.287 693.105 381.5 696.03 379.925 698.13C378.35 700.23 376.363 701.28 373.962 701.28C369.462 701.28 367.212 698.73 367.212 693.63C367.212 683.58 371.675 674.917 380.6 667.642C389.525 660.367 400.662 655.455 414.012 652.905C416.863 643.305 420.837 638.505 425.938 638.505C428.038 638.505 429.087 642.705 429.087 651.105ZM468.012 702.63C468.012 689.13 464.15 678.817 456.425 671.692C448.7 664.567 439.363 660.78 428.412 660.33C426.162 686.88 425.037 711.855 425.037 735.255C427.138 735.555 428.787 735.705 429.988 735.705C442.588 735.705 452.075 732.48 458.45 726.03C464.825 719.58 468.012 711.78 468.012 702.63Z"/>
<path clip-path="url(#TextBounds_2)" d="M551.263 782.505C545.412 782.505 540.988 781.305 537.987 778.905C536.937 777.855 536.412 775.192 536.412 770.917C536.412 766.642 536.562 760.905 536.862 753.705C532.962 763.455 529.1 770.692 525.275 775.417C521.45 780.142 516.538 782.505 510.537 782.505C504.537 782.505 499.288 779.692 494.787 774.067C490.287 768.442 488.037 759.592 488.037 747.517C488.037 735.442 491.45 724.755 498.275 715.455C505.1 706.155 514.062 701.505 525.162 701.505C529.963 701.505 535.362 704.655 541.362 710.955C542.563 709.305 544.7 707.317 547.775 704.992C550.85 702.667 553.475 701.505 555.65 701.505C557.825 701.505 558.912 704.355 558.912 710.055C558.912 711.555 558.5 714.48 557.675 718.83C556.85 723.18 555.913 726.33 554.862 728.28C553.512 731.73 552.837 743.955 552.837 764.955C552.837 769.005 553.287 771.03 554.188 771.03C556.738 770.88 560.262 767.692 564.763 761.467C569.263 755.242 573.725 747.255 578.15 737.505C582.575 727.755 585.275 722.88 586.25 722.88C587.225 722.88 587.712 723.48 587.712 724.68C587.712 728.88 585.538 735.555 581.188 744.705C569.337 769.905 559.363 782.505 551.263 782.505ZM523.812 710.505C519.612 710.505 515.15 713.617 510.425 719.842C505.7 726.067 503.337 733.38 503.337 741.78C503.337 750.18 504.575 757.08 507.05 762.48C509.525 767.88 512.787 770.58 516.837 770.58C521.788 770.58 529.062 758.205 538.662 733.455C538.813 732.255 539 730.192 539.225 727.267C539.45 724.342 539.637 722.13 539.787 720.63C538.437 718.23 536.075 715.942 532.7 713.767C529.325 711.592 526.363 710.505 523.812 710.505Z"/>
<path clip-path="url(#TextBounds_2)" d="M593.787 722.655L606.162 721.305C607.363 721.305 608.412 721.98 609.312 723.33C610.213 724.68 610.662 726.105 610.662 727.605C610.662 729.105 610.175 734.205 609.2 742.905C608.225 751.605 607.737 758.467 607.737 763.492C607.737 768.517 608.187 771.03 609.087 771.03C611.638 770.88 615.162 767.692 619.662 761.467C624.163 755.242 628.625 747.255 633.05 737.505C637.475 727.755 640.175 722.88 641.15 722.88C642.125 722.88 642.612 723.48 642.612 724.68C642.612 728.88 640.438 735.555 636.088 744.705C624.237 769.905 614.263 782.505 606.162 782.505C600.312 782.505 595.888 781.305 592.888 778.905C591.837 777.855 591.312 771.33 591.312 759.33C591.312 747.33 592.587 737.055 595.138 728.505C586.437 728.505 580.363 725.73 576.912 720.18C575.112 717.33 574.212 714.105 574.212 710.505C574.212 706.905 574.962 703.755 576.462 701.055C577.963 698.355 580.1 697.005 582.875 697.005C585.65 697.005 588.2 698.467 590.525 701.392C592.85 704.317 594.013 707.58 594.013 711.18C594.013 714.78 592.963 718.38 590.862 721.98C591.463 722.43 592.437 722.655 593.787 722.655Z"/>
<path clip-path="url(#TextBounds_2)" d="M669.612 840.105C669.612 829.155 672.087 816.93 677.037 803.43L679.737 755.73C675.987 764.73 672.275 771.442 668.6 775.867C664.925 780.292 660.05 782.505 653.975 782.505C647.9 782.505 642.65 779.73 638.225 774.18C633.8 768.63 631.587 759.78 631.587 747.63C631.587 735.48 635 724.755 641.825 715.455C648.65 706.155 657.612 701.505 668.713 701.505C673.513 701.505 678.837 704.58 684.688 710.73C691.738 703.08 696.912 699.255 700.213 699.255C702.463 699.255 703.588 702.105 703.588 707.805C703.588 709.155 703.063 711.967 702.013 716.242C700.962 720.517 699.913 723.63 698.862 725.58C697.962 728.58 697.213 736.267 696.612 748.642C696.012 761.017 695.638 768.33 695.487 770.58C697.438 767.43 701.637 759.93 708.088 748.08C717.688 730.68 723.537 721.98 725.638 721.98C726.838 721.98 727.438 722.805 727.438 724.455C727.438 726.105 726.613 727.905 724.963 729.855C716.862 739.605 706.813 758.13 694.812 785.43C694.812 810.63 692.788 829.305 688.737 841.455C687.987 843.555 685.925 846.067 682.55 848.992C679.175 851.917 676.363 853.38 674.112 853.38C672.612 853.38 671.488 851.992 670.737 849.217C669.987 846.442 669.612 843.405 669.612 840.105ZM667.362 709.605C663.162 709.605 658.7 712.867 653.975 719.392C649.25 725.917 646.888 733.417 646.888 741.892C646.888 750.367 648.125 757.267 650.6 762.592C653.075 767.917 656.112 770.58 659.713 770.58C663.313 770.58 666.687 768.03 669.838 762.93C672.988 757.83 676.812 749.28 681.312 737.28L683.112 717.93C681.312 715.83 678.8 713.917 675.575 712.192C672.35 710.467 669.613 709.605 667.362 709.605Z"/>
<path clip-path="url(#TextBounds_2)" d="M716.638 761.805L717.987 736.605C717.987 720.555 718.737 711.78 720.237 710.28C721.738 708.78 724.4 706.567 728.225 703.642C732.05 700.717 734.825 699.255 736.55 699.255C738.275 699.255 739.362 699.555 739.812 700.155C740.263 700.755 740.487 701.955 740.487 703.755C740.487 710.205 739.063 716.73 736.213 723.33C733.962 737.13 732.838 748.455 732.838 757.305C732.838 766.155 734.262 770.58 737.112 770.58C740.563 770.58 744.612 767.58 749.263 761.58C753.913 755.58 758.562 746.655 763.213 734.805C764.563 719.805 765.65 711.705 766.475 710.505C767.3 709.305 769.362 707.13 772.662 703.98C775.963 700.83 778.7 699.255 780.875 699.255C783.05 699.255 784.138 702.105 784.138 707.805C784.138 709.305 783.725 712.23 782.9 716.58C782.075 720.93 781.138 724.08 780.088 726.03C778.437 730.23 777.612 743.205 777.612 764.955C777.612 769.005 778.062 771.03 778.963 771.03C781.513 770.88 785.037 767.692 789.537 761.467C794.038 755.242 798.5 747.255 802.925 737.505C807.35 727.755 810.05 722.88 811.025 722.88C812 722.88 812.487 723.48 812.487 724.68C812.487 728.88 810.313 735.555 805.963 744.705C794.112 769.905 784.138 782.505 776.037 782.505C770.187 782.505 765.763 781.305 762.763 778.905C761.712 777.855 761.188 774.63 761.188 769.23C761.188 763.83 761.412 757.83 761.862 751.23C757.062 761.43 752.263 769.192 747.463 774.517C742.662 779.842 737.3 782.505 731.375 782.505C725.45 782.505 721.513 780.93 719.562 777.78C717.612 774.63 716.638 769.305 716.638 761.805Z"/>
<path clip-path="url(#TextBounds_2)" d="M826.213 782.505C817.812 782.505 811.138 779.317 806.188 772.942C801.237 766.567 798.763 759.33 798.763 751.23C798.763 734.88 802.212 722.505 809.112 714.105C816.013 705.705 824.937 701.505 835.888 701.505C840.988 701.505 845.187 702.892 848.487 705.667C851.788 708.442 853.438 712.23 853.438 717.03C853.438 726.03 849.65 733.567 842.075 739.642C834.5 745.717 825.238 748.905 814.287 749.205C814.888 755.055 816.875 760.117 820.25 764.392C823.625 768.667 827.562 770.805 832.062 770.805C836.563 770.805 840.612 769.755 844.213 767.655C847.813 765.555 851.112 762.555 854.112 758.655C860.413 750.405 865.812 741.03 870.312 730.53C871.513 727.83 872.45 725.88 873.125 724.68C873.8 723.48 874.55 722.88 875.375 722.88C876.2 722.88 876.612 723.48 876.612 724.68C876.612 732.18 872.038 743.43 862.888 758.43C852.987 774.48 840.763 782.505 826.213 782.505ZM814.287 743.805C823.138 742.305 829.625 739.455 833.75 735.255C837.875 731.055 839.938 725.58 839.938 718.83C839.938 712.08 837.763 708.705 833.412 708.705C828.162 708.705 823.738 712.342 820.138 719.617C816.537 726.892 814.588 734.955 814.287 743.805Z"/>
</g>
</g>
</g>
<g id="Antojitos-del-Parque">
<path d="M156.47 428.14C161.03 428.14 167.11 422.883 174.71 412.37C182.31 401.857 189.847 388.303 197.32 371.71C204.793 355.117 209.353 346.82 211 346.82C212.647 346.82 213.47 347.833 213.47 349.86C213.47 356.953 209.797 368.227 202.45 383.68C182.437 426.24 165.463 447.52 151.53 447.52C139.877 447.52 131.517 445.493 126.45 441.44C124.17 439.16 123.03 415.093 123.03 369.24L60.71 373.8C55.8967 386.973 51.59 400.147 47.79 413.32C43.99 426.493 41.4567 434.6 40.19 437.64C37.4033 444.227 30.69 447.52 20.05 447.52C12.9567 447.52 9.41 444.48 9.41 438.4C9.41 432.32 14.2233 423.453 23.85 411.8C25.6233 409.52 31.45 397.233 41.33 374.94C37.7833 375.193 34.3633 375.32 31.07 375.32C22.2033 375.32 17.77 371.52 17.77 363.92C17.77 357.08 21.3167 353.66 28.41 353.66C28.9167 353.66 36.1367 354.293 50.07 355.56C53.87 346.693 57.9233 337.953 62.23 329.34C95.4167 259.927 118.217 225.22 130.63 225.22C140.003 225.22 146.463 268.667 150.01 355.56L153.43 355.56C155.203 355.56 156.09 356.827 156.09 359.36C156.09 361.893 154.19 364.047 150.39 365.82C151.91 407.367 153.937 428.14 156.47 428.14ZM66.41 357.46C96.05 357.46 114.923 357.333 123.03 357.08C122.777 353.027 122.523 345.933 122.27 335.8C122.017 325.667 121.763 316.863 121.51 309.39C121.257 301.917 121.003 294.127 120.75 286.02C119.737 268.54 118.217 259.8 116.19 259.8C113.403 259.8 107.703 268.033 99.09 284.5C90.4767 300.967 83.7633 314.9 78.95 326.3C72.3633 342.767 68.1833 353.153 66.41 357.46ZM226.01 425.1L226.39 436.88C226.39 443.973 224.363 447.52 220.31 447.52C214.23 447.52 208.403 446.697 202.83 445.05C197.257 443.403 194.47 441.123 194.47 438.21C194.47 435.297 195.167 425.29 196.56 408.19C197.953 391.09 198.65 378.233 198.65 369.62L198.65 347.2C198.65 335.04 199.917 327.693 202.45 325.16C204.983 322.627 209.48 318.953 215.94 314.14C222.4 309.327 227.087 306.92 230 306.92C232.913 306.92 234.75 307.427 235.51 308.44C236.27 309.453 236.65 311.353 236.65 314.14C236.65 327.567 234.117 340.233 229.05 352.14C227.783 366.58 227.15 376.587 227.15 382.16C228.163 380.64 233.483 372.027 243.11 356.32C252.737 340.613 260.907 329.087 267.62 321.74C274.333 314.393 280.35 310.72 285.67 310.72C290.99 310.72 295.74 312.493 299.92 316.04C304.1 319.587 306.19 324.02 306.19 329.34C306.19 340.487 304.987 356.89 302.58 378.55C300.173 400.21 298.97 413.89 298.97 419.59C298.97 425.29 299.73 428.14 301.25 428.14C305.557 427.887 311.51 422.503 319.11 411.99C326.71 401.477 334.247 387.987 341.72 371.52C349.193 355.053 353.753 346.82 355.4 346.82C357.047 346.82 357.87 347.833 357.87 349.86C357.87 356.953 354.197 368.227 346.85 383.68C326.837 426.24 309.99 447.52 296.31 447.52C286.43 447.52 278.957 445.493 273.89 441.44C272.117 439.667 271.23 435.043 271.23 427.57C271.23 420.097 271.927 407.937 273.32 391.09C274.713 374.243 275.41 361.64 275.41 353.28C275.41 344.92 273.953 340.74 271.04 340.74C268.127 340.74 260.463 349.417 248.05 366.77C235.637 384.123 229.05 395.207 228.29 400.02C226.77 408.887 226.01 417.247 226.01 425.1ZM422.47 383.68C402.457 426.24 385.547 447.52 371.74 447.52C357.933 447.52 349.827 445.873 347.42 442.58C345.013 439.287 343.81 428.393 343.81 409.9C343.81 391.407 345.583 364.68 349.13 329.72C336.463 327.187 329.75 321.993 328.99 314.14C328.99 310.087 331.65 308.06 336.97 308.06C342.29 308.06 346.977 309.073 351.03 311.1C353.31 292.86 355.97 274.367 359.01 255.62C359.77 250.807 362.177 246.247 366.23 241.94C370.283 237.633 374.21 235.48 378.01 235.48C381.303 235.48 382.95 240.673 382.95 251.06C382.95 255.873 381.177 278.04 377.63 317.56C384.47 316.293 392.007 313.76 400.24 309.96C408.473 306.16 413.35 304.26 414.87 304.26C419.43 304.26 421.71 305.653 421.71 308.44C421.963 310.973 417.277 314.457 407.65 318.89C398.023 323.323 387.637 326.68 376.49 328.96C373.45 365.947 371.93 393.94 371.93 412.94C371.93 423.073 373.45 428.14 376.49 428.14C381.05 427.887 387.13 422.567 394.73 412.18C402.33 401.793 409.867 388.303 417.34 371.71C424.813 355.117 429.373 346.82 431.02 346.82C432.667 346.82 433.49 347.833 433.49 349.86C433.49 356.953 429.817 368.227 422.47 383.68ZM532.67 363.16C542.803 359.867 549.833 357.017 553.76 354.61C557.687 352.203 560.663 350.367 562.69 349.1L567.25 346.44C568.517 345.68 569.53 345.3 570.29 345.3C572.317 345.3 573.33 346.44 573.33 348.72C573.33 351 569.403 354.99 561.55 360.69C553.697 366.39 543.943 371.52 532.29 376.08C530.517 397.36 523.803 414.587 512.15 427.76C500.497 440.933 483.903 447.52 462.37 447.52C446.663 447.52 434.63 441.25 426.27 428.71C417.91 416.17 413.73 401.477 413.73 384.63C413.73 367.783 418.733 351.887 428.74 336.94C438.747 321.993 451.603 314.52 467.31 314.52C474.403 309.453 482.827 306.92 492.58 306.92C502.333 306.92 511.39 312.113 519.75 322.5C528.11 332.887 532.417 346.44 532.67 363.16ZM507.97 382.54L494.29 383.3C482.637 383.3 472.757 379.817 464.65 372.85C456.543 365.883 452.49 358.22 452.49 349.86C452.49 341.5 453.883 334.28 456.67 328.2C445.777 336.813 440.33 353.787 440.33 379.12C440.33 391.28 442.863 402.87 447.93 413.89C452.997 424.91 460.977 430.42 471.87 430.42C482.763 430.42 491.25 425.797 497.33 416.55C503.41 407.303 506.957 395.967 507.97 382.54ZM484.41 319.46C480.357 319.46 477.19 321.297 474.91 324.97C472.63 328.643 471.49 332.633 471.49 336.94C471.49 346.313 474.72 353.913 481.18 359.74C487.64 365.567 495.177 368.48 503.79 368.48L508.35 368.48C507.843 356.067 505.753 344.793 502.08 334.66C498.407 324.527 492.517 319.46 484.41 319.46ZM558.13 431.18C561.423 364.807 563.26 330.353 563.64 327.82C564.02 325.287 567.63 321.17 574.47 315.47C581.31 309.77 586.567 306.92 590.24 306.92C593.913 306.92 595.75 312.367 595.75 323.26C595.75 334.153 593.47 343.78 588.91 352.14C586.63 371.393 585.237 387.1 584.73 399.26C609.557 367.847 622.793 351.253 624.44 349.48C626.087 347.707 627.543 346.82 628.81 346.82C631.343 346.82 632.61 348.087 632.61 350.62C632.61 352.14 632.103 353.787 631.09 355.56C622.983 367.467 607.023 388.367 583.21 418.26C581.69 448.407 580.677 468.927 580.17 479.82C578.903 511.993 574.407 534.603 566.68 547.65C558.953 560.697 545.21 567.22 525.45 567.22C516.837 567.22 508.793 564.623 501.32 559.43C493.847 554.237 490.11 546.13 490.11 535.11C490.11 524.09 492.707 513.513 497.9 503.38C503.093 493.247 508.54 484.887 514.24 478.3C519.94 471.713 527.793 463.227 537.8 452.84C547.807 442.453 554.583 435.233 558.13 431.18ZM556.99 449.04C528.11 480.2 513.67 505.153 513.67 523.9C513.67 532.513 515.19 539.607 518.23 545.18C521.27 550.753 525.45 553.54 530.77 553.54C538.877 553.54 544.577 549.107 547.87 540.24C551.163 531.373 553.57 513.387 555.09 486.28L556.99 449.04ZM569.91 259.8C569.91 255.24 572.317 251.313 577.13 248.02C581.943 244.727 586.25 243.08 590.05 243.08C596.89 243.08 600.31 247.007 600.31 254.86C600.31 262.713 598.283 269.49 594.23 275.19C590.177 280.89 584.477 283.74 577.13 283.74C572.317 283.74 569.91 275.76 569.91 259.8ZM629.95 259.8C629.95 255.24 632.357 251.313 637.17 248.02C641.983 244.727 646.29 243.08 650.09 243.08C656.93 243.08 660.35 247.007 660.35 254.86C660.35 262.713 658.323 269.49 654.27 275.19C650.217 280.89 644.517 283.74 637.17 283.74C632.357 283.74 629.95 275.76 629.95 259.8ZM640.97 447.52C631.09 447.52 623.617 445.493 618.55 441.44C616.777 439.667 615.89 433.333 615.89 422.44C615.89 411.547 616.713 393.37 618.36 367.91C620.007 342.45 621.463 328.707 622.73 326.68C623.997 324.653 627.923 320.853 634.51 315.28C641.097 309.707 646.227 306.92 649.9 306.92C653.573 306.92 655.41 311.733 655.41 321.36C655.41 323.893 654.713 328.833 653.32 336.18C651.927 343.527 650.343 348.847 648.57 352.14C645.277 360.5 643.63 382.413 643.63 417.88C643.63 424.72 644.39 428.14 645.91 428.14C650.217 427.887 656.17 422.503 663.77 411.99C671.37 401.477 678.907 387.987 686.38 371.52C693.853 355.053 698.413 346.82 700.06 346.82C701.707 346.82 702.53 347.833 702.53 349.86C702.53 356.953 698.857 368.227 691.51 383.68C671.497 426.24 654.65 447.52 640.97 447.52ZM767.51 383.68C747.497 426.24 730.587 447.52 716.78 447.52C702.973 447.52 694.867 445.873 692.46 442.58C690.053 439.287 688.85 428.393 688.85 409.9C688.85 391.407 690.623 364.68 694.17 329.72C681.503 327.187 674.79 321.993 674.03 314.14C674.03 310.087 676.69 308.06 682.01 308.06C687.33 308.06 692.017 309.073 696.07 311.1C698.35 292.86 701.01 274.367 704.05 255.62C704.81 250.807 707.217 246.247 711.27 241.94C715.323 237.633 719.25 235.48 723.05 235.48C726.343 235.48 727.99 240.673 727.99 251.06C727.99 255.873 726.217 278.04 722.67 317.56C729.51 316.293 737.047 313.76 745.28 309.96C753.513 306.16 758.39 304.26 759.91 304.26C764.47 304.26 766.75 305.653 766.75 308.44C767.003 310.973 762.317 314.457 752.69 318.89C743.063 323.323 732.677 326.68 721.53 328.96C718.49 365.947 716.97 393.94 716.97 412.94C716.97 423.073 718.49 428.14 721.53 428.14C726.09 427.887 732.17 422.567 739.77 412.18C747.37 401.793 754.907 388.303 762.38 371.71C769.853 355.117 774.413 346.82 776.06 346.82C777.707 346.82 778.53 347.833 778.53 349.86C778.53 356.953 774.857 368.227 767.51 383.68ZM877.71 363.16C887.843 359.867 894.873 357.017 898.8 354.61C902.727 352.203 905.703 350.367 907.73 349.1L912.29 346.44C913.557 345.68 914.57 345.3 915.33 345.3C917.357 345.3 918.37 346.44 918.37 348.72C918.37 351 914.443 354.99 906.59 360.69C898.737 366.39 888.983 371.52 877.33 376.08C875.557 397.36 868.843 414.587 857.19 427.76C845.537 440.933 828.943 447.52 807.41 447.52C791.703 447.52 779.67 441.25 771.31 428.71C762.95 416.17 758.77 401.477 758.77 384.63C758.77 367.783 763.773 351.887 773.78 336.94C783.787 321.993 796.643 314.52 812.35 314.52C819.443 309.453 827.867 306.92 837.62 306.92C847.373 306.92 856.43 312.113 864.79 322.5C873.15 332.887 877.457 346.44 877.71 363.16ZM853.01 382.54L839.33 383.3C827.677 383.3 817.797 379.817 809.69 372.85C801.583 365.883 797.53 358.22 797.53 349.86C797.53 341.5 798.923 334.28 801.71 328.2C790.817 336.813 785.37 353.787 785.37 379.12C785.37 391.28 787.903 402.87 792.97 413.89C798.037 424.91 806.017 430.42 816.91 430.42C827.803 430.42 836.29 425.797 842.37 416.55C848.45 407.303 851.997 395.967 853.01 382.54ZM829.45 319.46C825.397 319.46 822.23 321.297 819.95 324.97C817.67 328.643 816.53 332.633 816.53 336.94C816.53 346.313 819.76 353.913 826.22 359.74C832.68 365.567 840.217 368.48 848.83 368.48L853.39 368.48C852.883 356.067 850.793 344.793 847.12 334.66C843.447 324.527 837.557 319.46 829.45 319.46ZM953.33 329.34L954.09 323.64C954.09 319.08 951.493 316.8 946.3 316.8C941.107 316.8 936.103 320.157 931.29 326.87C926.477 333.583 924.07 339.093 924.07 343.4C924.07 347.707 924.323 351.127 924.83 353.66C925.337 356.193 925.907 358.283 926.54 359.93C927.173 361.577 928.25 363.54 929.77 365.82C931.29 368.1 932.43 369.747 933.19 370.76L937.37 376.08C939.143 378.613 940.41 380.26 941.17 381.02C954.343 370.127 970.05 357.967 988.29 344.54C989.303 343.78 990.443 343.4 991.71 343.4C994.243 343.4 995.51 344.793 995.51 347.58C995.51 350.367 994.37 352.52 992.09 354.04C975.877 364.427 960.55 375.7 946.11 387.86C951.683 395.967 954.47 404.833 954.47 414.46C954.47 424.087 950.797 432.32 943.45 439.16C936.103 446 926.73 449.42 915.33 449.42C903.93 449.42 898.23 443.973 898.23 433.08C898.23 425.227 906.59 413.193 923.31 396.98C922.043 395.46 919.763 392.99 916.47 389.57C913.177 386.15 910.707 383.427 909.06 381.4C907.413 379.373 905.45 376.713 903.17 373.42C899.117 367.087 897.09 360.247 897.09 352.9C897.09 337.953 901.903 325.857 911.53 316.61C921.157 307.363 931.417 302.74 942.31 302.74C949.15 302.74 954.47 304.577 958.27 308.25C962.07 311.923 963.97 315.66 963.97 319.46C963.97 328.073 961.943 332.38 957.89 332.38C954.85 332.38 953.33 331.367 953.33 329.34ZM929.01 404.2C918.877 414.333 913.81 422.503 913.81 428.71C913.81 434.917 916.977 438.02 923.31 438.02C927.11 438.02 930.277 436.5 932.81 433.46C938.383 425.86 937.117 416.107 929.01 404.2ZM189.012 782.505C183.912 782.505 179.938 781.38 177.087 779.13C175.887 777.93 175.287 774.78 175.287 769.68C175.287 764.58 175.512 757.905 175.962 749.655C171.912 760.455 167.788 768.63 163.587 774.18C159.387 779.73 154.1 782.505 147.725 782.505C141.35 782.505 135.95 779.73 131.525 774.18C127.1 768.63 124.887 759.78 124.887 747.63C124.887 735.48 128.3 724.755 135.125 715.455C141.95 706.155 150.912 701.505 162.012 701.505C167.413 701.505 173.037 703.605 178.887 707.805C181.288 678.555 183.462 662.055 185.412 658.305C186.313 656.655 188.45 654.255 191.825 651.105C195.2 647.955 198.012 646.38 200.262 646.38C202.513 646.38 203.637 649.905 203.637 656.955C203.637 665.205 202.888 672.33 201.387 678.33C197.337 693.78 194.788 703.605 193.738 707.805C191.637 724.005 190.587 743.055 190.587 764.955C190.587 769.005 191.037 771.03 191.938 771.03C194.638 770.88 198.237 767.73 202.738 761.58C207.238 755.43 211.7 747.442 216.125 737.617C220.55 727.792 223.25 722.88 224.225 722.88C225.2 722.88 225.688 723.48 225.688 724.68C225.688 728.88 223.513 735.555 219.162 744.705C207.312 769.905 197.263 782.505 189.012 782.505ZM160.662 709.605C156.612 709.605 152.563 712.83 148.512 719.28C144.462 725.73 142.438 733.192 142.438 741.667C142.438 750.142 143.525 757.08 145.7 762.48C147.875 767.88 150.612 770.58 153.912 770.58C160.663 770.58 168.387 757.08 177.087 730.08C177.838 721.83 178.212 716.955 178.212 715.455C173.862 711.555 168.013 709.605 160.662 709.605ZM240.988 782.505C232.587 782.505 225.913 779.317 220.962 772.942C216.012 766.567 213.537 759.33 213.537 751.23C213.537 734.88 216.987 722.505 223.887 714.105C230.788 705.705 239.712 701.505 250.662 701.505C255.763 701.505 259.962 702.892 263.262 705.667C266.563 708.442 268.212 712.23 268.212 717.03C268.212 726.03 264.425 733.567 256.85 739.642C249.275 745.717 240.013 748.905 229.062 749.205C229.663 755.055 231.65 760.117 235.025 764.392C238.4 768.667 242.337 770.805 246.838 770.805C251.338 770.805 255.387 769.755 258.988 767.655C262.588 765.555 265.887 762.555 268.887 758.655C275.188 750.405 280.587 741.03 285.087 730.53C286.288 727.83 287.225 725.88 287.9 724.68C288.575 723.48 289.325 722.88 290.15 722.88C290.975 722.88 291.387 723.48 291.387 724.68C291.387 732.18 286.813 743.43 277.663 758.43C267.762 774.48 255.538 782.505 240.988 782.505ZM229.062 743.805C237.913 742.305 244.4 739.455 248.525 735.255C252.65 731.055 254.713 725.58 254.713 718.83C254.713 712.08 252.538 708.705 248.188 708.705C242.937 708.705 238.513 712.342 234.912 719.617C231.312 726.892 229.363 734.955 229.062 743.805ZM295.887 782.505C292.587 782.505 289.55 782.092 286.775 781.267C284 780.442 282.313 779.655 281.712 778.905C280.212 777.105 279.462 767.767 279.462 750.892C279.462 734.017 281.337 711.105 285.087 682.155C288.238 658.305 295.587 646.38 307.137 646.38C309.838 646.38 311.787 647.842 312.987 650.767C314.188 653.692 314.787 656.505 314.787 659.205C314.787 678.705 308.863 700.53 297.012 724.68C296.562 737.13 296.337 747.967 296.337 757.192C296.337 766.417 297.162 771.03 298.812 771.03C301.363 770.88 304.887 767.692 309.387 761.467C313.888 755.242 318.35 747.255 322.775 737.505C327.2 727.755 329.9 722.88 330.875 722.88C331.85 722.88 332.337 723.48 332.337 724.68C332.337 728.88 330.163 735.555 325.812 744.705C313.962 769.905 303.988 782.505 295.887 782.505ZM309.162 661.23C309.162 656.43 308.563 654.03 307.362 654.03C302.862 654.03 299.563 672.705 297.462 710.055C305.263 689.505 309.162 673.23 309.162 661.23ZM429.087 651.105C429.988 650.955 432.425 650.88 436.4 650.88C440.375 650.88 445.175 651.592 450.8 653.017C456.425 654.442 461.9 656.767 467.225 659.992C472.55 663.217 476.825 667.942 480.05 674.167C483.275 680.392 484.887 687.78 484.887 696.33C484.887 710.43 479.413 721.83 468.462 730.53C457.512 739.23 443.038 743.58 425.037 743.58C425.037 772.83 419.863 787.455 409.512 787.455C402.612 787.455 399.162 784.53 399.162 778.68C399.162 776.88 400.062 774.405 401.863 771.255C403.663 768.105 404.937 764.505 405.688 760.455C406.438 756.405 407.037 749.88 407.488 740.88C401.337 738.93 398.262 736.23 398.262 732.78C398.262 729.33 399.837 727.605 402.988 727.605C404.638 727.605 406.287 727.83 407.938 728.28C409.888 688.23 411.237 666.105 411.988 661.905C403.437 664.005 396.35 667.455 390.725 672.255C385.1 677.055 382.287 682.755 382.287 689.355C382.287 693.105 381.5 696.03 379.925 698.13C378.35 700.23 376.363 701.28 373.962 701.28C369.462 701.28 367.212 698.73 367.212 693.63C367.212 683.58 371.675 674.917 380.6 667.642C389.525 660.367 400.662 655.455 414.012 652.905C416.863 643.305 420.837 638.505 425.938 638.505C428.038 638.505 429.087 642.705 429.087 651.105ZM468.012 702.63C468.012 689.13 464.15 678.817 456.425 671.692C448.7 664.567 439.363 660.78 428.412 660.33C426.162 686.88 425.037 711.855 425.037 735.255C427.138 735.555 428.787 735.705 429.988 735.705C442.588 735.705 452.075 732.48 458.45 726.03C464.825 719.58 468.012 711.78 468.012 702.63ZM551.263 782.505C545.412 782.505 540.988 781.305 537.987 778.905C536.937 777.855 536.412 775.192 536.412 770.917C536.412 766.642 536.562 760.905 536.862 753.705C532.962 763.455 529.1 770.692 525.275 775.417C521.45 780.142 516.538 782.505 510.537 782.505C504.537 782.505 499.288 779.692 494.787 774.067C490.287 768.442 488.037 759.592 488.037 747.517C488.037 735.442 491.45 724.755 498.275 715.455C505.1 706.155 514.062 701.505 525.162 701.505C529.963 701.505 535.362 704.655 541.362 710.955C542.563 709.305 544.7 707.317 547.775 704.992C550.85 702.667 553.475 701.505 555.65 701.505C557.825 701.505 558.912 704.355 558.912 710.055C558.912 711.555 558.5 714.48 557.675 718.83C556.85 723.18 555.913 726.33 554.862 728.28C553.512 731.73 552.837 743.955 552.837 764.955C552.837 769.005 553.287 771.03 554.188 771.03C556.738 770.88 560.262 767.692 564.763 761.467C569.263 755.242 573.725 747.255 578.15 737.505C582.575 727.755 585.275 722.88 586.25 722.88C587.225 722.88 587.712 723.48 587.712 724.68C587.712 728.88 585.538 735.555 581.188 744.705C569.337 769.905 559.363 782.505 551.263 782.505ZM523.812 710.505C519.612 710.505 515.15 713.617 510.425 719.842C505.7 726.067 503.337 733.38 503.337 741.78C503.337 750.18 504.575 757.08 507.05 762.48C509.525 767.88 512.787 770.58 516.837 770.58C521.788 770.58 529.062 758.205 538.662 733.455C538.813 732.255 539 730.192 539.225 727.267C539.45 724.342 539.637 722.13 539.787 720.63C538.437 718.23 536.075 715.942 532.7 713.767C529.325 711.592 526.363 710.505 523.812 710.505ZM593.787 722.655L606.162 721.305C607.363 721.305 608.412 721.98 609.312 723.33C610.213 724.68 610.662 726.105 610.662 727.605C610.662 729.105 610.175 734.205 609.2 742.905C608.225 751.605 607.737 758.467 607.737 763.492C607.737 768.517 608.187 771.03 609.087 771.03C611.638 770.88 615.162 767.692 619.662 761.467C624.163 755.242 628.625 747.255 633.05 737.505C637.475 727.755 640.175 722.88 641.15 722.88C642.125 722.88 642.612 723.48 642.612 724.68C642.612 728.88 640.438 735.555 636.088 744.705C624.237 769.905 614.263 782.505 606.162 782.505C600.312 782.505 595.888 781.305 592.888 778.905C591.837 777.855 591.312 771.33 591.312 759.33C591.312 747.33 592.587 737.055 595.138 728.505C586.437 728.505 580.363 725.73 576.912 720.18C575.112 717.33 574.212 714.105 574.212 710.505C574.212 706.905 574.962 703.755 576.462 701.055C577.963 698.355 580.1 697.005 582.875 697.005C585.65 697.005 588.2 698.467 590.525 701.392C592.85 704.317 594.013 707.58 594.013 711.18C594.013 714.78 592.963 718.38 590.862 721.98C591.463 722.43 592.437 722.655 593.787 722.655ZM669.612 840.105C669.612 829.155 672.087 816.93 677.037 803.43L679.737 755.73C675.987 764.73 672.275 771.442 668.6 775.867C664.925 780.292 660.05 782.505 653.975 782.505C647.9 782.505 642.65 779.73 638.225 774.18C633.8 768.63 631.587 759.78 631.587 747.63C631.587 735.48 635 724.755 641.825 715.455C648.65 706.155 657.612 701.505 668.713 701.505C673.513 701.505 678.837 704.58 684.688 710.73C691.738 703.08 696.912 699.255 700.213 699.255C702.463 699.255 703.588 702.105 703.588 707.805C703.588 709.155 703.063 711.967 702.013 716.242C700.962 720.517 699.913 723.63 698.862 725.58C697.962 728.58 697.213 736.267 696.612 748.642C696.012 761.017 695.638 768.33 695.487 770.58C697.438 767.43 701.637 759.93 708.088 748.08C717.688 730.68 723.537 721.98 725.638 721.98C726.838 721.98 727.438 722.805 727.438 724.455C727.438 726.105 726.613 727.905 724.963 729.855C716.862 739.605 706.813 758.13 694.812 785.43C694.812 810.63 692.788 829.305 688.737 841.455C687.987 843.555 685.925 846.067 682.55 848.992C679.175 851.917 676.363 853.38 674.112 853.38C672.612 853.38 671.488 851.992 670.737 849.217C669.987 846.442 669.612 843.405 669.612 840.105ZM667.362 709.605C663.162 709.605 658.7 712.867 653.975 719.392C649.25 725.917 646.888 733.417 646.888 741.892C646.888 750.367 648.125 757.267 650.6 762.592C653.075 767.917 656.112 770.58 659.713 770.58C663.313 770.58 666.687 768.03 669.838 762.93C672.988 757.83 676.812 749.28 681.312 737.28L683.112 717.93C681.312 715.83 678.8 713.917 675.575 712.192C672.35 710.467 669.613 709.605 667.362 709.605ZM716.638 761.805L717.987 736.605C717.987 720.555 718.737 711.78 720.237 710.28C721.738 708.78 724.4 706.567 728.225 703.642C732.05 700.717 734.825 699.255 736.55 699.255C738.275 699.255 739.362 699.555 739.812 700.155C740.263 700.755 740.487 701.955 740.487 703.755C740.487 710.205 739.063 716.73 736.213 723.33C733.962 737.13 732.838 748.455 732.838 757.305C732.838 766.155 734.262 770.58 737.112 770.58C740.563 770.58 744.612 767.58 749.263 761.58C753.913 755.58 758.562 746.655 763.213 734.805C764.563 719.805 765.65 711.705 766.475 710.505C767.3 709.305 769.362 707.13 772.662 703.98C775.963 700.83 778.7 699.255 780.875 699.255C783.05 699.255 784.138 702.105 784.138 707.805C784.138 709.305 783.725 712.23 782.9 716.58C782.075 720.93 781.138 724.08 780.088 726.03C778.437 730.23 777.612 743.205 777.612 764.955C777.612 769.005 778.062 771.03 778.963 771.03C781.513 770.88 785.037 767.692 789.537 761.467C794.038 755.242 798.5 747.255 802.925 737.505C807.35 727.755 810.05 722.88 811.025 722.88C812 722.88 812.487 723.48 812.487 724.68C812.487 728.88 810.313 735.555 805.963 744.705C794.112 769.905 784.138 782.505 776.037 782.505C770.187 782.505 765.763 781.305 762.763 778.905C761.712 777.855 761.188 774.63 761.188 769.23C761.188 763.83 761.412 757.83 761.862 751.23C757.062 761.43 752.263 769.192 747.463 774.517C742.662 779.842 737.3 782.505 731.375 782.505C725.45 782.505 721.513 780.93 719.562 777.78C717.612 774.63 716.638 769.305 716.638 761.805ZM826.213 782.505C817.812 782.505 811.138 779.317 806.188 772.942C801.237 766.567 798.763 759.33 798.763 751.23C798.763 734.88 802.212 722.505 809.112 714.105C816.013 705.705 824.937 701.505 835.888 701.505C840.988 701.505 845.187 702.892 848.487 705.667C851.788 708.442 853.438 712.23 853.438 717.03C853.438 726.03 849.65 733.567 842.075 739.642C834.5 745.717 825.238 748.905 814.287 749.205C814.888 755.055 816.875 760.117 820.25 764.392C823.625 768.667 827.562 770.805 832.062 770.805C836.563 770.805 840.612 769.755 844.213 767.655C847.813 765.555 851.112 762.555 854.112 758.655C860.413 750.405 865.812 741.03 870.312 730.53C871.513 727.83 872.45 725.88 873.125 724.68C873.8 723.48 874.55 722.88 875.375 722.88C876.2 722.88 876.612 723.48 876.612 724.68C876.612 732.18 872.038 743.43 862.888 758.43C852.987 774.48 840.763 782.505 826.213 782.505ZM814.287 743.805C823.138 742.305 829.625 739.455 833.75 735.255C837.875 731.055 839.938 725.58 839.938 718.83C839.938 712.08 837.763 708.705 833.412 708.705C828.162 708.705 823.738 712.342 820.138 719.617C816.537 726.892 814.588 734.955 814.287 743.805Z" fill="#000000" fill-rule="nonzero" opacity="1" stroke="none"/>
</g>
</svg>
